<svg xmlns="http://www.w3.org/2000/svg" viewBox="0 0 500 500" width="500" height="500" preserveAspectRatio="xMidYMid meet" style="width: 100%; height: 100%; transform: translate3d(0px, 0px, 0px);"><defs><clipPath id="__lottie_element_17"><rect width="500" height="500" x="0" y="0"></rect></clipPath><filter id="__lottie_element_28" filterUnits="objectBoundingBox" x="0%" y="0%" width="100%" height="100%"><feComponentTransfer in="SourceGraphic"><feFuncA type="table" tableValues="1.0 0.0"></feFuncA></feComponentTransfer></filter><mask id="__lottie_element_27" mask-type="alpha"><g filter="url(#__lottie_element_28)"><rect width="500" height="500" x="0" y="0" fill="#ffffff" opacity="0"></rect><g transform="matrix(0.8999999761581421,0,0,0.8999999761581421,250,250)" opacity="1" style="display: block;"><g opacity="1" transform="matrix(1,0,0,1,0,0)"><path fill="rgb(18,19,49)" fill-opacity="1" d=" M-197.5,146.125 C-197.5,146.125 -196,185 -192,188 C-188,191 -99,292 -99,292 C-99,292 180,222 180,222 C180,222 191,146.5 191,146.5 C191,146.5 0.75,205.75 0.75,205.75 C0.75,205.75 -197.5,146.125 -197.5,146.125z"></path><path stroke-linecap="butt" stroke-linejoin="miter" fill-opacity="0" stroke-miterlimit="4" stroke="rgb(8,168,138)" stroke-opacity="1" stroke-width="0" d=" M-197.5,146.125 C-197.5,146.125 -196,185 -192,188 C-188,191 -99,292 -99,292 C-99,292 180,222 180,222 C180,222 191,146.5 191,146.5 C191,146.5 0.75,205.75 0.75,205.75 C0.75,205.75 -197.5,146.125 -197.5,146.125z"></path></g></g></g></mask></defs><g clip-path="url(#__lottie_element_17)"><g transform="matrix(0.8999999761581421,0,0,0.8999999761581421,250,250)" opacity="1" style="display: block;"><g opacity="1" transform="matrix(1,0,0,1,-11.5,6.5)"><path stroke-linecap="round" stroke-linejoin="round" fill-opacity="0" stroke="rgb(0,206,171)" stroke-opacity="1" stroke-width="20" d=" M-172.93800354003906,-104.93800354003906 C-172.93800354003906,-104.93800354003906 -172.43800354003906,-54.9379997253418 -172.43800354003906,-54.9379997253418 C-172.43800354003906,-54.9379997253418 11.5,-8 11.5,-8 C11.5,-8 194.5,-56 194.5,-56 C194.5,-56 195,-105 195,-105 M195.03399658203125,-105 C195.03399658203125,-105 11,-152.5 11,-152.5 C11,-152.5 -173.03399658203125,-105 -173.03399658203125,-105 C-173.03399658203125,-105 11,-57.5 11,-57.5 C11,-57.5 195.03399658203125,-105 195.03399658203125,-105z"></path></g></g><g transform="matrix(0.8999999761581421,0,0,0.8999999761581421,250,250)" opacity="1" style="display: block;"><g opacity="1" transform="matrix(1,0,0,1,-11.5,6.5)"><path stroke-linecap="round" stroke-linejoin="round" fill-opacity="0" stroke="rgb(0,206,171)" stroke-opacity="1" stroke-width="20" d=" M170.12399291992188,-48.5 C170.12399291992188,-48.5 12,-9.5 12,-9.5 C12,-9.5 -147.93800354003906,-46.4379997253418 -147.93800354003906,-46.4379997253418 C-147.93800354003906,-46.4379997253418 -147.5189971923828,42.70199966430664 -147.5189971923828,42.70199966430664 C-147.5189971923828,42.70199966430664 -147.05499267578125,141.56300354003906 -147.05499267578125,141.56300354003906 C-147.05499267578125,141.56300354003906 11.90999984741211,189.5 11.90999984741211,189.5 C11.90999984741211,189.5 170.14300537109375,140.5 170.14300537109375,140.5 C170.14300537109375,140.5 170.13299560546875,43.49599838256836 170.13299560546875,43.49599838256836 C170.13299560546875,43.49599838256836 170.12399291992188,-48.5 170.12399291992188,-48.5z M11.75,-10.187999725341797 C11.75,-10.187999725341797 11.824000358581543,65.81900024414062 11.824000358581543,65.81900024414062 C11.824000358581543,65.81900024414062 11.944999694824219,189.18800354003906 11.944999694824219,189.18800354003906"></path></g></g><g mask="url(#__lottie_element_27)" style="display: block;"><g transform="matrix(0.8999999761581421,0,0,0.8999999761581421,250,250)" opacity="1"><g opacity="1" transform="matrix(1,0,0,1,0,0)"><path stroke-linecap="round" stroke-linejoin="round" fill-opacity="0" stroke="rgb(28,8,80)" stroke-opacity="1" stroke-width="20" d=" M-87.74199676513672,187.5 C-87.74199676513672,187.5 -87.4800033569336,69.53399658203125 -87.4800033569336,69.53399658203125 C-87.4800033569336,69.53399658203125 -87.27400207519531,-22.75 -87.27400207519531,-22.75 C-87.27400207519531,-22.75 -102.13700103759766,-27 -102.13700103759766,-27 C-102.13700103759766,-27 -102,-74 -102,-74 C-102,-74 0,-107.30400085449219 0,-107.30400085449219 M87.58799743652344,187.5 C87.58799743652344,187.5 87.24099731445312,63.505001068115234 87.24099731445312,63.505001068115234 C87.24099731445312,63.505001068115234 86.99700164794922,-23.75 86.99700164794922,-23.75 C86.99700164794922,-23.75 101.86299896240234,-28.5 101.86299896240234,-28.5 C101.86299896240234,-28.5 102,-74 102,-74 C102,-74 0,-107.19599914550781 0,-107.19599914550781"></path></g></g></g><g transform="matrix(0.8999995589256287,0.0008979805279523134,-0.0008979805279523134,0.8999995589256287,249.00779724121094,246.3964080810547)" opacity="1" style="display: block;"><g opacity="1" transform="matrix(1,0,0,1,0,0)"><path stroke-linecap="round" stroke-linejoin="miter" fill-opacity="0" stroke-miterlimit="4" stroke="rgb(28,8,80)" stroke-opacity="1" stroke-width="20" d=" M1.4789999723434448,-105.14399719238281 C-236,-138.01300048828125 -48.645999908447266,-304.00201416015625 3.944000005722046,-102.67900085449219"></path></g></g><g transform="matrix(0.8999995589256287,-0.0008979805279523134,0.0008979805279523134,0.8999995589256287,248.84300231933594,246.4034881591797)" opacity="1" style="display: block;"><g opacity="1" transform="matrix(1,0,0,1,0,0)"><path stroke-linecap="round" stroke-linejoin="miter" fill-opacity="0" stroke-miterlimit="4" stroke="rgb(28,8,80)" stroke-opacity="1" stroke-width="20" d=" M4.415999889373779,-105.14399719238281 C238.94200134277344,-138.01300048828125 53.917999267578125,-304.00201416015625 1.9819999933242798,-102.67900085449219"></path></g></g></g></svg>